<svg xmlns="http://www.w3.org/2000/svg" viewBox="0 0 480.3 480.3" width="512" height="512"><g fill="#5b4636"><path d="M254.15 234.1V13.5c0-7.5-6-13.5-13.5-13.5s-13.5 6-13.5 13.5v220.6c-31.3 6.3-55 34-55 67.2s23.7 60.9 55 67.2v98.2c0 7.5 6 13.5 13.5 13.5s13.5-6 13.5-13.5v-98.2c31.3-6.3 55-34 55-67.2 0-33.1-23.6-60.9-55-67.2zm-13.5 108.7c-22.9 0-41.5-18.6-41.5-41.5s18.6-41.5 41.5-41.5 41.5 18.6 41.5 41.5-18.6 41.5-41.5 41.5zM88.85 120.9V13.5c0-7.5-6-13.5-13.5-13.5s-13.5 6-13.5 13.5v107.4c-31.3 6.3-55 34-55 67.2s23.7 60.9 55 67.2v211.4c0 7.5 6 13.5 13.5 13.5s13.5-6 13.5-13.5V255.2c31.3-6.3 55-34 55-67.2s-23.7-60.8-55-67.1zm-13.5 108.7c-22.9 0-41.5-18.6-41.5-41.5s18.6-41.5 41.5-41.5 41.5 18.6 41.5 41.5-18.7 41.5-41.5 41.5zM418.45 120.9V13.5c0-7.5-6-13.5-13.5-13.5s-13.5 6-13.5 13.5v107.4c-31.3 6.3-55 34-55 67.2s23.7 60.9 55 67.2v211.5c0 7.5 6 13.5 13.5 13.5s13.5-6 13.5-13.5V255.2c31.3-6.3 55-34 55-67.2s-23.6-60.8-55-67.1zm-13.5 108.7c-22.9 0-41.5-18.6-41.5-41.5s18.6-41.5 41.5-41.5 41.5 18.6 41.5 41.5-18.6 41.5-41.5 41.5z"/></g></svg>